<svg width="1382.406250" height="55.500000" viewBox="0 0 1382.41 55.5" fill="none" xmlns="http://www.w3.org/2000/svg" xmlns:xlink="http://www.w3.org/1999/xlink">
	<desc>
			Created with Pixso.
	</desc>
	<defs>
		<clipPath id="clip1_444">
			<rect id="Frame" width="135.000000" height="55.000000" transform="translate(0.203125 0.500000)" fill="white" fill-opacity="0"/>
		</clipPath>
	</defs>
	<g clip-path="url(#clip1_444)">
		<path id="Vector" d="M0.203125 24.0645L0.203125 2.69873L3.0052 2.69873L3.0052 9.97314L13.3513 9.97314L13.3513 12.4385L3.0052 12.4385L2.93784 23.9165C2.93784 30.9888 6.87151 35.0034 13.3513 35.0034L13.3513 37.5361C4.81038 37.5493 0.203125 32.4844 0.203125 24.0645Z" fill="#D96E00" fill-opacity="1.000000" fill-rule="nonzero"/>
		<path id="Vector" d="M46.9359 37.6172C41.5338 37.6172 38.3276 35.5425 37.2499 31.7437C36.1856 35.5562 32.8447 37.6172 27.3618 37.6172C21.6229 37.6172 17.6758 34.4111 17.6758 26.7998L17.6758 10.041L20.4105 10.041L20.4105 26.7324C20.4105 32.9424 23.2799 35.0845 27.6851 35.0845C32.6965 35.0845 35.8353 32.417 35.8353 27.4058L35.8353 10.041L38.5701 10.041L38.5701 27.4731C38.5701 32.3496 41.6416 35.0845 46.5856 35.0845C51.0581 35.0845 54.1296 32.9424 54.1296 26.7324L54.1296 10.041L56.8644 10.041L56.8644 26.7998C56.8913 34.4243 52.8094 37.6172 46.9359 37.6172Z" fill="#D96E00" fill-opacity="1.000000" fill-rule="nonzero"/>
		<path id="Vector" d="M64.0316 5.17773C62.9 5.17773 61.957 4.36963 61.957 3.30518C61.957 2.37549 62.8865 1.5 64.0316 1.5C65.1632 1.5 66.1062 2.3623 66.1062 3.37256C66.1062 4.38281 65.1632 5.17773 64.0316 5.17773ZM62.6306 37.2939L62.6306 10.041L65.3653 10.041L65.3653 37.2803L62.6306 37.2803L62.6306 37.2939Z" fill="#D96E00" fill-opacity="1.000000" fill-rule="nonzero"/>
		<path id="Vector" d="M98.41 54.9141C98.41 50.5762 96.4701 46.4946 90.5965 46.4946L73.1779 46.4946L73.2452 46.3599L73.1779 46.3599C73.3799 41.6851 74.7136 38.1421 78.1893 36.418C73.3126 34.2759 69.9717 29.6011 69.9717 24.0645C69.9717 15.1865 77.1789 10.1079 85.3292 10.1079L90.0038 10.1079C93.7489 10.1079 94.9478 7.5752 94.9478 4.75977L96.2815 4.75977C96.2141 7.2251 95.6079 9.03027 94.1395 10.1079L98.6121 10.1079L98.6121 12.708C98.6121 12.708 92.1323 12.6406 91.3375 12.6406C95.7426 14.2437 98.9489 18.9185 98.9489 24.0645C98.9489 31.8105 92.6038 37.7515 84.5209 37.7515L82.9851 37.7515C78.1758 37.7515 76.0473 40.5537 75.4411 43.9619L89.1281 43.9619C92.9271 43.9619 94.1395 41.4292 94.1395 38.6138L95.4732 38.6138C95.3385 41.3481 94.611 43.2212 92.8058 44.2852C98.2753 45.417 100.215 49.229 100.485 54.9009L98.41 54.9009L98.41 54.9141ZM84.4535 12.6543C77.9064 12.6543 72.5717 17.7329 72.5717 23.9434C72.5717 28.4155 75.3064 32.2822 79.2535 34.0874C78.5799 33.0229 78.2566 31.6221 78.1893 29.8169L79.523 29.8169C79.523 32.6187 80.7219 35.2188 84.3996 35.2188L84.467 35.2188C91.0141 35.2188 96.3489 30.2075 96.3489 23.9297C96.3489 17.7192 91.0007 12.6543 84.4535 12.6543Z" fill="#D96E00" fill-opacity="1.000000" fill-rule="nonzero"/>
		<path id="Vector" d="M112.366 37.6851C109.968 37.6851 105.818 36.8901 102.612 34.0073L104.148 32.2021C106.95 34.5327 110.291 35.1387 112.231 35.1387C115.639 35.0713 118.845 33.064 118.778 29.9927C118.711 21.6538 103.555 27.5947 103.42 17.0464C103.353 12.978 107.489 9.83936 111.894 9.70459C113.767 9.70459 117.431 10.1763 120.502 12.5068L118.899 14.2446C116.623 12.6411 113.686 12.1699 112.15 12.1699C109.146 12.2373 106.074 14.1772 106.074 16.979C106.074 24.9946 121.23 19.5117 121.432 29.8716C121.513 34.29 117.512 37.6177 112.366 37.6851Z" fill="#D96E00" fill-opacity="1.000000" fill-rule="nonzero"/>
		<path id="Vector" d="M124.693 11.4287C124.693 9.86572 125.919 8.59961 127.441 8.59961C128.977 8.59961 130.203 9.86572 130.203 11.4287C130.203 12.9512 128.977 14.231 127.441 14.231C125.919 14.231 124.693 12.9644 124.693 11.4287ZM129.664 11.4287C129.664 10.1353 128.681 9.07129 127.441 9.07129C126.216 9.07129 125.205 10.1353 125.205 11.4287C125.205 12.7085 126.202 13.7593 127.441 13.7593C128.681 13.7593 129.664 12.6948 129.664 11.4287ZM126.498 10.041C126.727 10.0142 127.01 9.9873 127.307 9.9873C128.128 9.9873 128.506 10.3779 128.506 10.8896C128.506 11.2266 128.331 11.5498 128.007 11.6982L128.681 12.7759L127.98 12.7759L127.441 11.8325C127.374 11.8462 127.334 11.8462 127.293 11.8462C127.239 11.8462 127.185 11.8462 127.078 11.8325L127.078 12.7759L126.485 12.7759L126.485 10.041L126.498 10.041ZM127.105 11.3477C127.199 11.3613 127.266 11.3613 127.334 11.3613C127.67 11.3613 127.872 11.1997 127.872 10.9033C127.872 10.6606 127.697 10.5127 127.374 10.5127C127.28 10.5127 127.199 10.5127 127.118 10.5259L127.118 11.3477L127.105 11.3477Z" fill="#D96E00" fill-opacity="1.000000" fill-rule="nonzero"/>
	</g>
	<path id="Instagram" d="M1210.95 32.5L1209.54 32.5L1209.54 21.8359L1210.95 21.8359L1210.95 32.5ZM1214.59 24.5752L1214.63 25.5713Q1215.54 24.4287 1217.01 24.4287Q1219.52 24.4287 1219.54 27.2632L1219.54 32.5L1218.19 32.5L1218.19 27.2559Q1218.18 26.3989 1217.79 25.9888Q1217.41 25.5786 1216.6 25.5786Q1215.94 25.5786 1215.44 25.9302Q1214.94 26.2817 1214.66 26.853L1214.66 32.5L1213.31 32.5L1213.31 24.5752L1214.59 24.5752ZM1226.2 30.3979Q1226.2 29.8486 1225.78 29.5447Q1225.37 29.2407 1224.34 29.021Q1223.31 28.8013 1222.71 28.4937Q1222.1 28.186 1221.82 27.7612Q1221.53 27.3364 1221.53 26.7505Q1221.53 25.7764 1222.35 25.1025Q1223.17 24.4287 1224.46 24.4287Q1225.8 24.4287 1226.64 25.1245Q1227.48 25.8203 1227.48 26.9043L1226.12 26.9043Q1226.12 26.3477 1225.65 25.9448Q1225.17 25.542 1224.46 25.542Q1223.72 25.542 1223.3 25.8643Q1222.88 26.1865 1222.88 26.7065Q1222.88 27.1973 1223.27 27.4463Q1223.66 27.6953 1224.67 27.9224Q1225.69 28.1494 1226.32 28.4644Q1226.95 28.7793 1227.25 29.2224Q1227.55 29.6655 1227.55 30.3027Q1227.55 31.3647 1226.7 32.0056Q1225.85 32.6465 1224.5 32.6465Q1223.55 32.6465 1222.81 32.3096Q1222.08 31.9727 1221.67 31.3684Q1221.25 30.7642 1221.25 30.061L1222.61 30.061Q1222.65 30.7422 1223.16 31.1414Q1223.66 31.5405 1224.5 31.5405Q1225.27 31.5405 1225.73 31.2292Q1226.2 30.918 1226.2 30.3979ZM1231.16 22.6562L1231.16 24.5752L1232.64 24.5752L1232.64 25.6226L1231.16 25.6226L1231.16 30.5371Q1231.16 31.0132 1231.35 31.2512Q1231.55 31.4893 1232.03 31.4893Q1232.26 31.4893 1232.67 31.4014L1232.67 32.5Q1232.14 32.6465 1231.63 32.6465Q1230.73 32.6465 1230.26 32.0972Q1229.8 31.5479 1229.8 30.5371L1229.8 25.6226L1228.36 25.6226L1228.36 24.5752L1229.8 24.5752L1229.8 22.6562L1231.16 22.6562ZM1239.11 32.5Q1238.99 32.2656 1238.92 31.665Q1237.98 32.6465 1236.67 32.6465Q1235.49 32.6465 1234.74 31.9836Q1233.99 31.3208 1233.99 30.3027Q1233.99 29.0649 1234.93 28.3801Q1235.87 27.6953 1237.58 27.6953L1238.9 27.6953L1238.9 27.0728Q1238.9 26.3623 1238.47 25.9412Q1238.05 25.52 1237.22 25.52Q1236.5 25.52 1236.01 25.8862Q1235.52 26.2524 1235.52 26.7725L1234.15 26.7725Q1234.15 26.1792 1234.57 25.6262Q1235 25.0732 1235.72 24.751Q1236.44 24.4287 1237.3 24.4287Q1238.67 24.4287 1239.45 25.1135Q1240.22 25.7983 1240.25 26.9995L1240.25 30.647Q1240.25 31.7383 1240.53 32.3828L1240.53 32.5L1239.11 32.5ZM1236.86 31.4673Q1237.5 31.4673 1238.07 31.1377Q1238.64 30.8081 1238.9 30.2808L1238.9 28.6548L1237.84 28.6548Q1235.35 28.6548 1235.35 30.1123Q1235.35 30.7495 1235.77 31.1084Q1236.2 31.4673 1236.86 31.4673ZM1242.06 28.4717Q1242.06 26.6187 1242.91 25.5237Q1243.77 24.4287 1245.18 24.4287Q1246.63 24.4287 1247.45 25.4541L1247.51 24.5752L1248.75 24.5752L1248.75 32.3096Q1248.75 33.8477 1247.84 34.7339Q1246.93 35.6201 1245.39 35.6201Q1244.53 35.6201 1243.71 35.2539Q1242.89 34.8877 1242.46 34.2505L1243.16 33.4375Q1244.03 34.5142 1245.29 34.5142Q1246.28 34.5142 1246.83 33.9575Q1247.39 33.4009 1247.39 32.3901L1247.39 31.709Q1246.57 32.6465 1245.17 32.6465Q1243.78 32.6465 1242.92 31.5259Q1242.06 30.4053 1242.06 28.4717ZM1243.42 28.6255Q1243.42 29.9658 1243.97 30.7312Q1244.52 31.4966 1245.51 31.4966Q1246.79 31.4966 1247.39 30.332L1247.39 26.7139Q1246.77 25.5786 1245.52 25.5786Q1244.53 25.5786 1243.97 26.3477Q1243.42 27.1167 1243.42 28.6255ZM1254.62 25.791Q1254.32 25.7397 1253.96 25.7397Q1252.62 25.7397 1252.15 26.875L1252.15 32.5L1250.79 32.5L1250.79 24.5752L1252.11 24.5752L1252.13 25.4907Q1252.8 24.4287 1254.02 24.4287Q1254.42 24.4287 1254.62 24.5312L1254.62 25.791ZM1260.47 32.5Q1260.35 32.2656 1260.28 31.665Q1259.33 32.6465 1258.02 32.6465Q1256.85 32.6465 1256.1 31.9836Q1255.35 31.3208 1255.35 30.3027Q1255.35 29.0649 1256.29 28.3801Q1257.23 27.6953 1258.94 27.6953L1260.26 27.6953L1260.26 27.0728Q1260.26 26.3623 1259.83 25.9412Q1259.41 25.52 1258.58 25.52Q1257.85 25.52 1257.36 25.8862Q1256.87 26.2524 1256.87 26.7725L1255.51 26.7725Q1255.51 26.1792 1255.93 25.6262Q1256.35 25.0732 1257.07 24.751Q1257.8 24.4287 1258.66 24.4287Q1260.03 24.4287 1260.81 25.1135Q1261.58 25.7983 1261.61 26.9995L1261.61 30.647Q1261.61 31.7383 1261.89 32.3828L1261.89 32.5L1260.47 32.5ZM1258.22 31.4673Q1258.86 31.4673 1259.43 31.1377Q1260 30.8081 1260.26 30.2808L1260.26 28.6548L1259.19 28.6548Q1256.7 28.6548 1256.7 30.1123Q1256.7 30.7495 1257.13 31.1084Q1257.55 31.4673 1258.22 31.4673ZM1265.01 24.5752L1265.05 25.4541Q1265.92 24.4287 1267.4 24.4287Q1269.06 24.4287 1269.66 25.7031Q1270.06 25.1318 1270.69 24.7803Q1271.32 24.4287 1272.19 24.4287Q1274.79 24.4287 1274.84 27.1899L1274.84 32.5L1273.48 32.5L1273.48 27.2705Q1273.48 26.4209 1273.1 25.9998Q1272.71 25.5786 1271.79 25.5786Q1271.04 25.5786 1270.54 26.0291Q1270.04 26.4795 1269.96 27.2412L1269.96 32.5L1268.6 32.5L1268.6 27.3071Q1268.6 25.5786 1266.91 25.5786Q1265.57 25.5786 1265.08 26.7139L1265.08 32.5L1263.73 32.5L1263.73 24.5752L1265.01 24.5752Z" fill="#81972C" fill-opacity="1.000000" fill-rule="evenodd"/>
	<path id="Facebook" d="M1321.32 27.7905L1316.85 27.7905L1316.85 32.5L1315.44 32.5L1315.44 21.8359L1322.05 21.8359L1322.05 22.9932L1316.85 22.9932L1316.85 26.6406L1321.32 26.6406L1321.32 27.7905ZM1328.16 32.5Q1328.05 32.2656 1327.97 31.665Q1327.03 32.6465 1325.72 32.6465Q1324.54 32.6465 1323.79 31.9836Q1323.04 31.3208 1323.04 30.3027Q1323.04 29.0649 1323.98 28.3801Q1324.93 27.6953 1326.63 27.6953L1327.95 27.6953L1327.95 27.0728Q1327.95 26.3623 1327.53 25.9412Q1327.1 25.52 1326.27 25.52Q1325.55 25.52 1325.06 25.8862Q1324.57 26.2524 1324.57 26.7725L1323.2 26.7725Q1323.2 26.1792 1323.63 25.6262Q1324.05 25.0732 1324.77 24.751Q1325.49 24.4287 1326.35 24.4287Q1327.72 24.4287 1328.5 25.1135Q1329.28 25.7983 1329.31 26.9995L1329.31 30.647Q1329.31 31.7383 1329.58 32.3828L1329.58 32.5L1328.16 32.5ZM1325.91 31.4673Q1326.55 31.4673 1327.12 31.1377Q1327.69 30.8081 1327.95 30.2808L1327.95 28.6548L1326.89 28.6548Q1324.4 28.6548 1324.4 30.1123Q1324.4 30.7495 1324.82 31.1084Q1325.25 31.4673 1325.91 31.4673ZM1334.61 31.5405Q1335.33 31.5405 1335.88 31.1011Q1336.42 30.6616 1336.48 30.0024L1337.76 30.0024Q1337.72 30.6836 1337.29 31.2988Q1336.86 31.9141 1336.14 32.2803Q1335.41 32.6465 1334.61 32.6465Q1332.99 32.6465 1332.03 31.5662Q1331.08 30.4858 1331.08 28.6108L1331.08 28.3838Q1331.08 27.2266 1331.5 26.3257Q1331.93 25.4248 1332.72 24.9268Q1333.52 24.4287 1334.6 24.4287Q1335.93 24.4287 1336.82 25.2271Q1337.7 26.0254 1337.76 27.2998L1336.48 27.2998Q1336.42 26.5308 1335.89 26.0364Q1335.37 25.542 1334.6 25.542Q1333.57 25.542 1333 26.2854Q1332.43 27.0288 1332.43 28.4351L1332.43 28.6914Q1332.43 30.061 1333 30.8008Q1333.56 31.5405 1334.61 31.5405ZM1342.57 32.6465Q1340.96 32.6465 1339.95 31.5881Q1338.94 30.5298 1338.94 28.7573L1338.94 28.5083Q1338.94 27.3291 1339.39 26.4026Q1339.84 25.4761 1340.65 24.9524Q1341.46 24.4287 1342.4 24.4287Q1343.95 24.4287 1344.8 25.4468Q1345.66 26.4648 1345.66 28.3618L1345.66 28.9258L1340.29 28.9258Q1340.32 30.0977 1340.98 30.8191Q1341.63 31.5405 1342.64 31.5405Q1343.36 31.5405 1343.86 31.2476Q1344.36 30.9546 1344.73 30.4712L1345.56 31.1157Q1344.56 32.6465 1342.57 32.6465ZM1342.4 25.542Q1341.58 25.542 1341.02 26.1389Q1340.47 26.7358 1340.34 27.8125L1344.31 27.8125L1344.31 27.71Q1344.25 26.6772 1343.75 26.1096Q1343.25 25.542 1342.4 25.542ZM1353.94 28.6255Q1353.94 30.4419 1353.1 31.5442Q1352.27 32.6465 1350.86 32.6465Q1349.36 32.6465 1348.54 31.5845L1348.47 32.5L1347.23 32.5L1347.23 21.25L1348.58 21.25L1348.58 25.4468Q1349.4 24.4287 1350.85 24.4287Q1352.29 24.4287 1353.11 25.52Q1353.94 26.6113 1353.94 28.5083L1353.94 28.6255ZM1352.58 28.4717Q1352.58 27.0874 1352.05 26.333Q1351.51 25.5786 1350.51 25.5786Q1349.17 25.5786 1348.58 26.8237L1348.58 30.2515Q1349.21 31.4966 1350.52 31.4966Q1351.5 31.4966 1352.04 30.7422Q1352.58 29.9878 1352.58 28.4717ZM1355.28 28.4644Q1355.28 27.2998 1355.74 26.3696Q1356.2 25.4395 1357.02 24.9341Q1357.83 24.4287 1358.88 24.4287Q1360.5 24.4287 1361.5 25.5493Q1362.5 26.6699 1362.5 28.5303L1362.5 28.6255Q1362.5 29.7827 1362.06 30.7019Q1361.61 31.6211 1360.79 32.1338Q1359.96 32.6465 1358.9 32.6465Q1357.28 32.6465 1356.28 31.5259Q1355.28 30.4053 1355.28 28.5596L1355.28 28.4644ZM1356.65 28.6255Q1356.65 29.9438 1357.26 30.7422Q1357.87 31.5405 1358.9 31.5405Q1359.93 31.5405 1360.54 30.7312Q1361.14 29.9219 1361.14 28.4644Q1361.14 27.1606 1360.53 26.3513Q1359.91 25.542 1358.88 25.542Q1357.88 25.542 1357.26 26.3403Q1356.65 27.1387 1356.65 28.6255ZM1363.84 28.4644Q1363.84 27.2998 1364.3 26.3696Q1364.75 25.4395 1365.57 24.9341Q1366.39 24.4287 1367.44 24.4287Q1369.05 24.4287 1370.05 25.5493Q1371.05 26.6699 1371.05 28.5303L1371.05 28.6255Q1371.05 29.7827 1370.61 30.7019Q1370.17 31.6211 1369.34 32.1338Q1368.52 32.6465 1367.45 32.6465Q1365.84 32.6465 1364.84 31.5259Q1363.84 30.4053 1363.84 28.5596L1363.84 28.4644ZM1365.2 28.6255Q1365.2 29.9438 1365.81 30.7422Q1366.42 31.5405 1367.45 31.5405Q1368.48 31.5405 1369.09 30.7312Q1369.7 29.9219 1369.7 28.4644Q1369.7 27.1606 1369.08 26.3513Q1368.46 25.542 1367.44 25.542Q1366.43 25.542 1365.82 26.3403Q1365.2 27.1387 1365.2 28.6255ZM1374.96 28.8306L1374.12 29.7168L1374.12 32.5L1372.76 32.5L1372.76 21.25L1374.12 21.25L1374.12 28.0542L1374.84 27.1826L1377.31 24.5752L1378.96 24.5752L1375.87 27.8857L1379.32 32.5L1377.73 32.5L1374.96 28.8306Z" fill="#81972C" fill-opacity="1.000000" fill-rule="evenodd"/>
</svg>
